<svg width="74" height="86" viewBox="0 0 74 86" fill="none" xmlns="http://www.w3.org/2000/svg">
<path d="M56.33 76.06L56.02 76.25L73.85 66.22L56.33 76.06Z" fill="#FCF1CC"/>
<path d="M56.33 39.06V76.06L56.0201 76.25L38.79 85.95L39.08 65.85V65.83C39.08 65.83 39.09 65.81 39.09 65.8H39.08L39.17 49.44L56.33 39.06Z" fill="#FCF1CC"/>
<path d="M17.8401 37.56L39.1601 49.44L17.8401 37.57V37.56Z" fill="#FCF1CC"/>
<path d="M39.1701 49.44L39.0801 65.8H39.0701V65.79L39.1601 49.44H39.1701Z" fill="#FCF1CC"/>
<path d="M39.0801 65.8C39.0801 65.8 39.0801 65.82 39.0801 65.83V65.85C38.5401 67.06 21.6201 76.06 21.6201 76.06L0.320068 63.72L0.960068 29.18L18.1601 20.6L17.8401 37.56V54.06L39.0801 65.8Z" fill="#FCF1CC"/>
<path d="M73.8501 12.89V66.22L56.3301 76.06V22.56L73.8501 12.89Z" fill="#FCF1CC"/>
<path d="M56.3301 39.06L39.1701 49.44H39.1601L17.8401 37.57V37.56L35.0001 27.17L56.3301 39.06Z" fill="#FCF1CC"/>
<path d="M73.8501 12.89L56.3301 22.56L35.3301 10.8C35.3301 9.82999 36.9501 9.11999 37.6801 8.65999C39.6101 7.43999 51.4101 0.439988 52.5501 0.549988L73.8501 12.89Z" fill="#FCF1CC"/>
</svg>
